<?xml version="1.0" encoding="utf-8"?>
<!-- Generator: Adobe Illustrator 16.0.0, SVG Export Plug-In . SVG Version: 6.00 Build 0)  -->
<!DOCTYPE svg PUBLIC "-//W3C//DTD SVG 1.1//EN" "http://www.w3.org/Graphics/SVG/1.1/DTD/svg11.dtd">
<svg version="1.1" xmlns="http://www.w3.org/2000/svg" xmlns:xlink="http://www.w3.org/1999/xlink" x="0px" y="0px" width="1400px"
	 height="980px" viewBox="0 0 1400 980" enable-background="new 0 0 1400 980" xml:space="preserve">
<g id="BACKGROUND">
	<rect fill="#FFFFFF" width="1400" height="980"/>
</g>
<g id="OBJECT">
	<g>
		<g>
			<path fill="#F4EAE9" d="M654.304,186c-9.707-50-53.643-87.577-106.386-87.577S451.239,136,441.532,186H442v35h212v-35H654.304z
				 M547.918,140.346c29.025,0,53.664,18.654,62.626,44.654H485.292C494.254,159,518.893,140.346,547.918,140.346z"/>
			
				<path fill="none" stroke="#020202" stroke-width="2" stroke-linecap="round" stroke-linejoin="round" stroke-miterlimit="10" stroke-dasharray="12" d="
				M547.918,103.045c0,0,81.604,13.246,94.271,77.871"/>
		</g>
		<path fill="#FD4631" d="M325,172c-30-2-21,49-21,49h40.5C344.5,221,355,174,325,172z M324.5,196c-3.59,0-6.5-2.91-6.5-6.5
			s2.91-6.5,6.5-6.5s6.5,2.91,6.5,6.5S328.09,196,324.5,196z"/>
		<path fill="#FD4631" d="M1110.683,181c-30-2-21,49-21,49h40.5C1130.183,230,1140.683,183,1110.683,181z M1110.183,205
			c-3.59,0-6.5-2.91-6.5-6.5s2.91-6.5,6.5-6.5s6.5,2.91,6.5,6.5S1113.772,205,1110.183,205z"/>
		
			<polygon fill="none" stroke="#020202" stroke-width="2" stroke-linecap="round" stroke-linejoin="round" stroke-miterlimit="10" points="
			1271,877 172,877 158,216 1288,238 		"/>
		<polygon fill="#43B5A5" points="1256,870 157,870 143,209 1273,231 		"/>
		<g>
			<path fill="#FD4631" d="M214,654l12,202h257L214,654z M262,743l110,77.5l-106-5.227L262,743z"/>
			<g>
				<g>
					
						<line fill="none" stroke="#020202" stroke-width="2" stroke-linecap="round" stroke-linejoin="round" x1="221.667" y1="665.533" x2="226.477" y2="669.12"/>
					
						<line fill="none" stroke="#020202" stroke-width="2" stroke-linecap="round" stroke-linejoin="round" stroke-dasharray="11.7286,11.7286" x1="235.879" y1="676.132" x2="456.823" y2="840.907"/>
					
						<line fill="none" stroke="#020202" stroke-width="2" stroke-linecap="round" stroke-linejoin="round" x1="461.524" y1="844.413" x2="466.334" y2="848"/>
				</g>
			</g>
		</g>
		<g>
			<path fill="#8BD6E8" d="M166.218,757.421c0,0-5.833-105.921-100.218-92.287c0,0,79.703,29.363,79.703,84.945L166.218,757.421z"/>
			<path fill="#8BD6E8" d="M183.457,757.421c0,0,4.195-84.946,87.043-89.142c0,0-90.055-23.071-112.669,81.8L183.457,757.421z"/>
			<path fill="#8BD6E8" d="M177.164,728.486c0,0,12.126-94.143-61.055-115.978c0,0,47.023,47.381,41.455,124.986L177.164,728.486z"
				/>
			<path fill="#8BD6E8" d="M169.365,716.057c0,0-1.639-92.441,30.871-101.047c0,0-16.779,39.637-12.584,84.731L169.365,716.057z"/>
			<path fill="#F4EAE9" d="M133.118,745h67.118c0,0-14.682,16.697-15.731,38.721c-1.048,22.022,23.072,35.615,2.098,72.32
				l-46.144-1.069c0,0-11.536-22.427-7.341-41.591C137.313,794.219,157.238,791,133.118,745z"/>
		</g>
		<polygon fill="#F1BA22" points="1287,896 91,909 117,855 1299,855 		"/>
		<path fill="#FFFFFF" d="M1198.479,642.575c0,0,15.521-0.792,15.521,12.519C1214,655.094,1201.982,657.096,1198.479,642.575z"/>
		<g>
			<path fill="#FFFFFF" d="M335,844c0,6.627-5.373,12-12,12h-97c-6.627,0-12-5.373-12-12v-17c0-6.627,5.373-12,12-12h97
				c6.627,0,12,5.373,12,12V844z"/>
			<polygon fill="#020202" points="220,834 341,834 341,805 206,805 206,836 			"/>
		</g>
		<g>
			<circle fill="#F6DC35" cx="826.974" cy="110.886" r="78.886"/>
			
				<circle fill="none" stroke="#020202" stroke-width="2" stroke-linecap="round" stroke-linejoin="round" stroke-miterlimit="10" cx="842.974" cy="110.886" r="78.886"/>
			
				<polyline fill="none" stroke="#020202" stroke-width="2" stroke-linecap="round" stroke-linejoin="round" stroke-miterlimit="10" points="
				843,52 843,111 874.083,81.5 			"/>
		</g>
		<path fill="none" stroke="#020202" stroke-width="2" stroke-linecap="round" stroke-linejoin="round" stroke-miterlimit="10" d="
			M68.509,666.125c0,0,63.157,2.209,89.491,78.875"/>
		<path fill="none" stroke="#020202" stroke-width="2" stroke-linecap="round" stroke-linejoin="round" stroke-miterlimit="10" d="
			M270.5,668.279c0,0-85.003-7.946-92.584,76.721"/>
		<path fill="none" stroke="#020202" stroke-width="2" stroke-linecap="round" stroke-linejoin="round" stroke-miterlimit="10" d="
			M116.109,612.509c0,0,44.287,19.938,53.256,103.548"/>
		<path fill="none" stroke="#020202" stroke-width="2" stroke-linecap="round" stroke-linejoin="round" stroke-miterlimit="10" d="
			M200.236,615.01c0,0-26.072,34.817-22.32,86.737"/>
		
			<line fill="none" stroke="#020202" stroke-width="2" stroke-linecap="round" stroke-linejoin="round" stroke-miterlimit="10" x1="136" y1="751" x2="196" y2="751"/>
		
			<polygon fill="none" stroke="#020202" stroke-width="2" stroke-linecap="round" stroke-linejoin="round" stroke-miterlimit="10" points="
			166,923.5 169.351,889 405,896 405,924 		"/>
		
			<polygon fill="none" stroke="#020202" stroke-width="2" stroke-linecap="round" stroke-linejoin="round" stroke-miterlimit="10" points="
			959,915.5 962.352,881 1198,888 1198,916 		"/>
		<g>
			
				<polygon fill="none" stroke="#FFFFFF" stroke-width="2" stroke-linecap="round" stroke-linejoin="round" stroke-miterlimit="10" points="
				312,480.363 312,630.604 448.041,616.792 435.146,465.482 			"/>
			<path fill="#FFFFFF" d="M416.171,561.217c0,3.036-0.422,5.932-1.202,8.721c-3.816,13.586-16.299,23.518-31.1,23.518
				c-17.845,0-32.302-14.384-32.302-32.228c0-17.838,14.457-32.228,32.302-32.228h0.225
				C401.826,529,416.171,543.456,416.171,561.217z"/>
			<path fill="#F6DC35" d="M416.124,561.132c0,3.036-0.445,5.974-1.226,8.765L384,560.809V528.83
				C402,528.949,416.124,543.371,416.124,561.132z"/>
			
				<line fill="none" stroke="#020202" stroke-width="2" stroke-linecap="round" stroke-linejoin="round" stroke-miterlimit="10" stroke-dasharray="12" x1="384.094" y1="560.809" x2="408.137" y2="539.826"/>
			<path fill="#FFFFFF" d="M333.1,509.92c-5.63,19.03-23.24,32.91-44.1,32.91c-25.41,0-46-20.6-46-46c0-25.41,20.59-46,46-46
				c0.38,0,0.77,0,1.15,0.02c-2.97,5.65-4.65,12.08-4.65,18.9c0,22.51,18.24,40.75,40.75,40.75
				C328.59,510.5,330.88,510.3,333.1,509.92z"/>
			<path fill="#8BD6E8" d="M335,496.83c0,4.55-0.66,8.939-1.9,13.09c-2.22,0.38-4.51,0.58-6.85,0.58
				c-22.51,0-40.75-18.24-40.75-40.75c0-6.82,1.68-13.25,4.65-18.9C315.03,451.45,335,471.8,335,496.83z"/>
			<path fill="#FD4631" d="M367,469.75c0,20.17-14.65,36.92-33.9,40.17c1.24-4.15,1.9-8.54,1.9-13.09
				c0-25.03-19.97-45.38-44.85-45.98c6.8-12.99,20.41-21.85,36.1-21.85C348.76,429,367,447.24,367,469.75z"/>
		</g>
		<g>
			
				<polygon fill="none" stroke="#FFFFFF" stroke-width="2" stroke-linecap="round" stroke-linejoin="round" stroke-miterlimit="10" points="
				233,402.54 341,397.639 285.5,290.334 			"/>
			
				<polyline fill="none" stroke="#FFFFFF" stroke-width="2" stroke-linecap="round" stroke-linejoin="round" stroke-miterlimit="10" points="
				341,398 475,398 429,285.653 285.5,290.334 			"/>
			
				<text transform="matrix(1 0 0 1 270.5 267.4927)" fill="#FFFFFF" font-family="'Rubik-Light'" font-size="22.2767" letter-spacing="1">A</text>
			
				<text transform="matrix(1 0 0 1 448.041 276.0737)" fill="#FFFFFF" font-family="'Rubik-Light'" font-size="22.2767" letter-spacing="1">B</text>
			
				<text transform="matrix(1 0 0 1 483 420.354)" fill="#FFFFFF" font-family="'Rubik-Light'" font-size="22.2767" letter-spacing="1">C</text>
			
				<line fill="none" stroke="#FFFFFF" stroke-width="2" stroke-linecap="round" stroke-linejoin="round" stroke-miterlimit="10" stroke-dasharray="12" x1="285.5" y1="398" x2="287" y2="306.829"/>
		</g>
		<text transform="matrix(1 0 0 1 521.6665 292.5327)"><tspan x="0" y="0" fill="#FFFFFF" font-family="'Rubik-Light'" font-size="41.6267" letter-spacing="2">MATH</tspan><tspan x="0" y="37" fill="#FFFFFF" font-family="'Rubik-Light'" font-size="41.6267" letter-spacing="2">CLASS</tspan></text>
		<g>
			<g>
				
					<polygon fill="none" stroke="#FFFFFF" stroke-width="2" stroke-linecap="round" stroke-linejoin="round" stroke-miterlimit="10" points="
					1212.553,332.716 1211.531,381.179 1143.216,403.756 1075.921,377.87 1076.942,329.406 1145.259,306.829 				"/>
				
					<polygon fill="none" stroke="#FFFFFF" stroke-width="2" stroke-linecap="round" stroke-linejoin="round" stroke-miterlimit="10" points="
					1212.553,509.716 1211.531,558.179 1143.216,580.756 1075.921,554.869 1076.942,506.406 1145.259,483.829 				"/>
				
					<line fill="none" stroke="#FFFFFF" stroke-width="2" stroke-linecap="round" stroke-linejoin="round" stroke-miterlimit="10" x1="1075.921" y1="377.87" x2="1076.942" y2="506.406"/>
				
					<line fill="none" stroke="#FFFFFF" stroke-width="2" stroke-linecap="round" stroke-linejoin="round" stroke-miterlimit="10" x1="1143" y1="404" x2="1143" y2="581"/>
				
					<line fill="none" stroke="#FFFFFF" stroke-width="2" stroke-linecap="round" stroke-linejoin="round" stroke-miterlimit="10" x1="1211.531" y1="381.179" x2="1212.553" y2="509.716"/>
				<g>
					<g>
						
							<line fill="none" stroke="#FFFFFF" stroke-width="2" stroke-linecap="round" stroke-linejoin="round" x1="1145" y1="307" x2="1145" y2="313"/>
						
							<line fill="none" stroke="#FFFFFF" stroke-width="2" stroke-linecap="round" stroke-linejoin="round" stroke-dasharray="10,10" x1="1145" y1="323" x2="1145" y2="379"/>
						
							<line fill="none" stroke="#FFFFFF" stroke-width="2" stroke-linecap="round" stroke-linejoin="round" x1="1145" y1="384" x2="1145" y2="390"/>
					</g>
				</g>
			</g>
			
				<text transform="matrix(1 0 0 1 1143 283.5239)" fill="#FFFFFF" font-family="'Rubik-Light'" font-size="22.2767" letter-spacing="1">A</text>
			
				<text transform="matrix(1 0 0 1 1143 612.5078)" fill="#FFFFFF" font-family="'Rubik-Light'" font-size="22.2767" letter-spacing="1">B</text>
			
				<text transform="matrix(1 0 0 1 1228 575.5391)" fill="#FFFFFF" font-family="'Rubik-Light'" font-size="22.2767" letter-spacing="1">C</text>
		</g>
		<g>
			<circle fill="#F4EAE9" cx="813.494" cy="403.953" r="36.494"/>
			
				<polyline fill="none" stroke="#FFFFFF" stroke-width="2" stroke-linecap="round" stroke-linejoin="round" stroke-miterlimit="10" points="
				899,306.475 793,417 959,417 			"/>
			<path fill="none" stroke="#FFFFFF" stroke-width="2" stroke-linecap="round" stroke-linejoin="round" stroke-miterlimit="10" d="
				M852.182,355.292c0,0,30.818,13.525,23.818,62.616"/>
			
				<circle fill="none" stroke="#FFFFFF" stroke-width="2" stroke-linecap="round" stroke-linejoin="round" stroke-miterlimit="10" cx="912.712" cy="341.648" r="6.852"/>
			
				<text transform="matrix(1 0 0 1 927.9336 312.1001)" fill="#FFFFFF" font-family="'Rubik-Light'" font-size="41.6267" letter-spacing="2">70</text>
			
				<text transform="matrix(1 0 0 1 823.9746 480.6748)" fill="#FFFFFF" font-family="'Rubik-Light'" font-size="30.3267" letter-spacing="1">3x + 3y =</text>
		</g>
		<g>
			
				<text transform="matrix(1 0 0 1 1053.918 696)" fill="#FFFFFF" font-family="'Rubik-Light'" font-size="30.3267" letter-spacing="1">22 + xy</text>
			
				<polyline fill="none" stroke="#FFFFFF" stroke-width="2" stroke-linecap="round" stroke-linejoin="round" stroke-miterlimit="10" points="
				1018.318,693.896 1033,707 1033,663 1171,663 			"/>
		</g>
		<g>
			<polygon fill="#020202" points="983.915,854.979 1108,836 1108,856 			"/>
			<path fill="#F4EAE9" d="M1067,856h197l9-41h-206C1067,815,1052,836,1067,856z"/>
			<path fill="#A6E3ED" d="M1109,778.677c0,0-7,24.323,11,37.323h170v-43L1109,778.677z"/>
			<path fill="#F6DC35" d="M1146,729c0,0-28,12.914-7,49.965l128-5.943L1259.778,729H1146z"/>
			<path fill="#FD4631" d="M1214,669.227c0,0-24-6.227-29,10.773s7,48,24,48l9-0.028l12,0.028c0,0,18-17,11-53
				C1241,675,1231,661.453,1214,669.227z"/>
			<path fill="none" stroke="#020202" stroke-width="2" stroke-linecap="round" stroke-linejoin="round" stroke-miterlimit="10" d="
				M1220,643c0,0-9.527,14-6.764,32"/>
			<path fill="#020202" d="M1120,816h79l-87.936-10.522C1111.064,805.478,1114,816,1120,816z"/>
			<path fill="#020202" d="M1199.095,775.852L1139,778.965c0,0-3.655-5.232-5.408-11.828L1199.095,775.852z"/>
			<path fill="none" stroke="#020202" stroke-width="2" stroke-linecap="round" stroke-linejoin="round" stroke-miterlimit="10" d="
				M1266,848h-187.5c-7.5-8,0.122-24,0.122-24H1271"/>
			
				<line fill="none" stroke="#020202" stroke-width="2" stroke-linecap="round" stroke-linejoin="round" stroke-miterlimit="10" x1="1269.269" y1="832" x2="1076.942" y2="828.392"/>
			
				<line fill="none" stroke="#020202" stroke-width="2" stroke-linecap="round" stroke-linejoin="round" stroke-miterlimit="10" x1="1075.921" y1="836" x2="1269.269" y2="840.25"/>
			<path fill="none" stroke="#020202" stroke-width="2" stroke-linecap="round" stroke-linejoin="round" stroke-miterlimit="10" d="
				M1290,805.478l-163,1.907c-3-8.615,0-21.385,0-21.385l163-7.035"/>
			
				<line fill="none" stroke="#020202" stroke-width="2" stroke-linecap="round" stroke-linejoin="round" stroke-miterlimit="10" x1="1125.902" y1="793.175" x2="1290" y2="787"/>
			
				<line fill="none" stroke="#020202" stroke-width="2" stroke-linecap="round" stroke-linejoin="round" stroke-miterlimit="10" x1="1125.902" y1="802.342" x2="1290" y2="794.5"/>
			<path fill="none" stroke="#020202" stroke-width="2" stroke-linecap="round" stroke-linejoin="round" stroke-miterlimit="10" d="
				M1154.994,769.989c0,0-6.307-22.989,11.35-26.989H1262"/>
			
				<line fill="none" stroke="#020202" stroke-width="2" stroke-linecap="round" stroke-linejoin="round" stroke-miterlimit="10" x1="1155.032" y1="761" x2="1263.877" y2="753.982"/>
			
				<line fill="none" stroke="#020202" stroke-width="2" stroke-linecap="round" stroke-linejoin="round" stroke-miterlimit="10" x1="1265.028" y1="761" x2="1155.032" y2="773.051"/>
		</g>
	</g>
	<g>
		<path fill="#EFC6BB" d="M1043,505.25c-7,6.75-26,18.75-29,27.75s-14,272.76-81,281.76c-28.61,3.851-56.12-14.51-78.26-36.81
			c-14.42-14.521-26.561-30.72-35.24-43.54C810.31,720.81,805,711,805,711l5.62-32.85L838,518c0,0,18,25,30,52
			c7.93,17.85,28.1,66.29,40.86,97.07C915.4,682.86,920,694,920,694l60-194.56c0,0-9-18.44,0-23.44s17-7,17-7h8c0,0,8-10,13-8
			s10,9,10,9l11,5c0,0,3,15,4,15S1050,498.5,1043,505.25z"/>
		
			<polyline fill="none" stroke="#020202" stroke-width="2" stroke-linecap="round" stroke-linejoin="round" stroke-miterlimit="10" points="
			1013.442,466.513 980,365 974,365 1005.912,467.756 		"/>
		
			<polyline fill="none" stroke="#020202" stroke-width="2" stroke-linecap="round" stroke-linejoin="round" stroke-miterlimit="10" points="
			1014.825,496.459 1027.306,536.643 1034.579,530.668 1025.94,504.446 		"/>
		<path fill="#8BD6E8" d="M908.86,667.07c-8.98,16.64-32.37,46.88-89.36,67.34C810.31,720.81,805,711,805,711l33-193
			c0,0,18,25,30,52C875.93,587.85,896.1,636.29,908.86,667.07z"/>
		<path fill="#020202" d="M854.74,777.95c-14.42-14.521-26.561-30.72-35.24-43.54C810.31,720.81,805,711,805,711l5.62-32.85L837,599
			L854.74,777.95z"/>
		<path fill="#EFC6BB" d="M633,809c0,0-152,22-158-20c-2.1-14.72,5.99-50.58,17.79-91.2C514.63,622.53,549.15,530.9,555,527
			c9-6,13,4,13,4l43.41,185.67L633,809z"/>
		<path fill="#8BD6E8" d="M611.41,716.67c-54.23,16.5-98.46-5.54-118.62-18.87C514.63,622.53,549.15,530.9,555,527c9-6,13,4,13,4
			L611.41,716.67z"/>
		<path fill="#CBF3F7" d="M555,527c18-10,121-51,283-9c0,0,8,3,8,25s-27,298-33,327H619.35L555,527z"/>
		<path fill="#EFC6BB" d="M684.412,499.673l34.088,12.66l10.51-11.988c0,0-5.371-25.383-1.663-28.942
			c3.708-3.559,21.677-3.559,17.524-29.66s-7.624-76.522-52.114-77.116c-44.49-0.593-23.092,81.269-23.092,81.269
			s-8.445,5.339-5.102,10.678s12.08,5.339,12.08,5.339S685.154,489.811,684.412,499.673z"/>
		<path fill="#FD4631" d="M669.681,445.895l9.519,5.932l-9.519-58.134c0,0,7.794,1.779,15.451-13.644
			c0,0,38.083,17.417,48.405,12.565s27.525-32.734,16.255-44.598c-11.271-11.864-37.373,3.559-40.932,0s-64.659-7.717-68.218,16.607
			c0,0-29.634,70.001,23.147,87.204L669.681,445.895z"/>
		<g>
			<path fill="#FD4631" d="M712,522.083c0,0-45.438-19.083-47.718-7.083S669,537,669,537v17l43-16V522.083z"/>
			<path fill="#FD4631" d="M725,522.083c0,0,45.438-19.083,47.719-7.083c2.279,12-4.719,22-4.719,22v17l-43-16V522.083z"/>
			<path fill="#F2A799" d="M705.635,519.577c0,0-3.319,23.075,13.865,22.923S730,516,730,516S707.77,506.654,705.635,519.577z"/>
		</g>
		<path fill="#FFFFFF" d="M668.498,500.461c0,0,4.708-4.95,15.915-0.788l34.088,12.66L700,533.5L668.498,500.461z"/>
		<path fill="#FFFFFF" d="M729.01,500.345l-10.51,11.988l20,21.167l6.99-33.155C745.49,500.345,735.076,493.425,729.01,500.345z"/>
		<path fill="#020202" d="M604,980c0,0-2.301-76.019,15.35-113H813l24,113H604z"/>
		<path fill="#F6DC35" d="M744,877c0,6.627-5.373,12-12,12h-19c-6.627,0-12-5.373-12-12v-3c0-6.627,5.373-12,12-12h19
			c6.627,0,12,5.373,12,12V877z"/>
		<path fill="#FD4631" d="M599.541,511.038L643,834l25-2l-35.65-327.548C632.35,504.452,607.178,508.937,599.541,511.038z"/>
		<path fill="#FD4631" d="M785,504.452L768,829l25,2l21.247-318.667C814.247,512.333,800.455,504.534,785,504.452z"/>
		<g>
			<circle fill="#FD4631" cx="657" cy="848" r="5"/>
			<path fill="#FFFFFF" d="M646,871h31c0,0-3.5-13-15.5-13S646,871,646,871z"/>
			<path fill="none" stroke="#020202" stroke-width="2" stroke-linecap="round" stroke-linejoin="round" stroke-miterlimit="10" d="
				M643,834c0,0,0.5,22.5,14,22s11-24,11-24"/>
		</g>
		<g>
			<circle fill="#FD4631" cx="779" cy="847" r="5"/>
			<path fill="#FFFFFF" d="M790,871h-31c0,0,3.5-13,15.5-13S790,871,790,871z"/>
			<path fill="none" stroke="#020202" stroke-width="2" stroke-linecap="round" stroke-linejoin="round" stroke-miterlimit="10" d="
				M793,833c0,0-0.5,22.5-14,22s-11-24-11-24"/>
		</g>
		<path fill="none" stroke="#020202" stroke-width="2" stroke-linecap="round" stroke-linejoin="round" stroke-miterlimit="10" d="
			M1005,469c0,0,9.5,4.5,5,9.5s-16.5,4.5-16.5,4.5s15,7.5,15,18.5"/>
		<path fill="none" stroke="#020202" stroke-width="2" stroke-linecap="round" stroke-linejoin="round" stroke-miterlimit="10" d="
			M1036.5,501.5c0,0-13,4.375-14.5-2.062s12-9.938,21-9.438"/>
		<path fill="none" stroke="#020202" stroke-width="2" stroke-linecap="round" stroke-linejoin="round" stroke-miterlimit="10" d="
			M1029.5,476.5c0,0-28.73,11.154-7.615,19.952"/>
		
			<line fill="none" stroke="#020202" stroke-width="2" stroke-linecap="round" stroke-linejoin="round" stroke-miterlimit="10" x1="1020" y1="469" x2="1011.21" y2="473"/>
		<path fill="none" stroke="#020202" stroke-width="2" stroke-linecap="round" stroke-linejoin="round" stroke-miterlimit="10" d="
			M1006.132,481.071c0,0-0.421,8.929,7.474,7.929"/>
		<path fill="none" stroke="#020202" stroke-width="2" stroke-linecap="round" stroke-linejoin="round" stroke-miterlimit="10" d="
			M920,694c0,0-8.334,20.782-7.667,28.558"/>
		<path fill="none" stroke="#020202" stroke-width="2" stroke-linecap="round" stroke-linejoin="round" stroke-miterlimit="10" d="
			M569.667,743c0,0,8.075-8.723,23.038-15.028"/>
		
			<line fill="none" stroke="#020202" stroke-width="2" stroke-linecap="round" stroke-linejoin="round" stroke-miterlimit="10" x1="719.5" y1="542.5" x2="725" y2="862"/>
		
			<polyline fill="none" stroke="#FFFFFF" stroke-width="2" stroke-linecap="round" stroke-linejoin="round" stroke-miterlimit="10" points="
			632,867 632,896 639,896 639,871 		"/>
		
			<polyline fill="none" stroke="#FFFFFF" stroke-width="2" stroke-linecap="round" stroke-linejoin="round" stroke-miterlimit="10" points="
			802,867 802,896 809,896 809,871 		"/>
		
			<polyline fill="none" stroke="#FFFFFF" stroke-width="2" stroke-linecap="round" stroke-linejoin="round" stroke-miterlimit="10" points="
			687,867 687,896 694,896 694,871 		"/>
		
			<polyline fill="none" stroke="#FFFFFF" stroke-width="2" stroke-linecap="round" stroke-linejoin="round" stroke-miterlimit="10" points="
			750,867 750,896 757,896 757,871 		"/>
		<path fill="none" stroke="#020202" stroke-width="2" stroke-linecap="round" stroke-linejoin="round" stroke-miterlimit="10" d="
			M731.995,355.667c0,0-0.995,15.333-19.995,17.333c-19,2-31,2.667-31,2.667"/>
		<path fill="none" stroke="#020202" stroke-width="2" stroke-linecap="round" stroke-linejoin="round" stroke-miterlimit="10" d="
			M742.333,361c0,0-0.666,24.548-30.333,29.274"/>
		
			<ellipse fill="none" stroke="#020202" stroke-width="2" stroke-linecap="round" stroke-linejoin="round" stroke-miterlimit="10" cx="739.836" cy="417.354" rx="7.643" ry="11.646"/>
		
			<ellipse fill="none" stroke="#020202" stroke-width="2" stroke-linecap="round" stroke-linejoin="round" stroke-miterlimit="10" cx="712.836" cy="420.354" rx="7.643" ry="11.646"/>
		<path fill="none" stroke="#020202" stroke-width="2" stroke-linecap="round" stroke-linejoin="round" stroke-miterlimit="10" d="
			M720.479,420.354c0,0,1.923-8.592,11.715-3"/>
		<path fill="none" stroke="#020202" stroke-width="2" stroke-linecap="round" stroke-linejoin="round" stroke-miterlimit="10" d="
			M712.836,451.827c0,0,9.679,7.909,19.357-1"/>
	</g>
</g>
</svg>
